<svg width="25" height="24" viewBox="0 0 25 24" fill="none" xmlns="http://www.w3.org/2000/svg">
<g id="Party">
<path id="Vector" fill-rule="evenodd" clip-rule="evenodd" d="M15.1265 17.401C14.245 18.2241 11.6442 16.8697 9.3168 14.377C6.9905 11.8842 5.818 9.19686 6.6995 8.37372C7.581 7.55058 10.1828 8.90497 12.5092 11.3977C14.8365 13.8905 16.008 16.5779 15.1265 17.401Z" stroke="white" stroke-width="1.5" stroke-linecap="round" stroke-linejoin="round"/>
<path id="Vector_2" d="M20.791 6.875H20.7677M18.0897 17.1323H18.0663" stroke="white" stroke-width="1.5" stroke-linecap="round" stroke-linejoin="round"/>
<path id="Vector_3" d="M6.547 8.57031L3.0336 19.6039C2.8701 20.1195 3.33909 20.6138 3.8636 20.4766L14.7969 17.5995" stroke="white" stroke-width="1.5" stroke-linecap="round" stroke-linejoin="round"/>
<path id="Vector_4" opacity="0.4" d="M8.63672 19.2191C7.91282 18.6976 7.15972 18.0223 6.43582 17.2508C5.67402 16.4296 5.03672 15.5899 4.55412 14.8086" stroke="white" stroke-width="1.5" stroke-linecap="round" stroke-linejoin="round"/>
<path id="Vector_5" opacity="0.4" d="M17.5528 14.081C17.5528 14.081 19.4043 13.938 21 15.6621" stroke="white" stroke-width="1.5" stroke-linecap="round" stroke-linejoin="round"/>
<path id="Vector_6" opacity="0.4" fill-rule="evenodd" clip-rule="evenodd" d="M14.4277 5.97024C14.4277 6.62505 14.9589 7.1563 15.6137 7.1563C16.2686 7.1563 16.7988 6.62505 16.7988 5.97024C16.7988 5.31543 16.2686 4.78516 15.6137 4.78516C14.9589 4.78516 14.4277 5.31543 14.4277 5.97024Z" stroke="white" stroke-width="1.5" stroke-linecap="round" stroke-linejoin="round"/>
<path id="Vector_7" d="M11.2686 12.6807C11.2686 12.6807 14.5144 9.33172 19.4863 10.7474" stroke="white" stroke-width="1.5" stroke-linecap="round" stroke-linejoin="round"/>
<path id="Vector_8" opacity="0.4" d="M10.1492 3.5C10.1492 3.5 12.0289 6.07352 9.9468 9.16758" stroke="white" stroke-width="1.5" stroke-linecap="round" stroke-linejoin="round"/>
</g>
</svg>
