<svg width="167" height="26" viewBox="0 0 167 26" fill="none" xmlns="http://www.w3.org/2000/svg">
<g clip-path="url(#clip0_9287_24678)">
<path d="M44.6686 4.40137C46.2788 4.40137 47.5311 4.77392 48.4057 5.53862C49.2803 6.28372 49.817 7.44058 50.0357 9.00921L47.8889 9.28372C47.8093 8.06803 47.4714 7.12686 46.9148 6.46019C46.3583 5.79352 45.6228 5.46019 44.6686 5.46019C43.6549 5.46019 42.8598 5.71509 42.3231 6.20529C41.7864 6.67588 41.5279 7.36215 41.5279 8.2445C41.5279 9.06803 41.7466 9.67588 42.164 10.1073C42.6212 10.519 43.3965 10.872 44.5494 11.1465L45.9607 11.4994C47.4913 11.9308 48.5846 12.4798 49.2207 13.1857C49.8568 13.8916 50.1748 14.8523 50.1748 16.0876C50.1748 17.5386 49.6977 18.6759 48.7237 19.4406C47.7696 20.2249 46.3781 20.6171 44.5891 20.6171C42.8796 20.6171 41.5677 20.2445 40.6732 19.4994C39.7787 18.7347 39.242 17.5778 39.0432 16.0092L41.1304 15.6955C41.2695 16.9112 41.6273 17.8523 42.2237 18.519C42.8001 19.1857 43.5952 19.519 44.609 19.519C46.8552 19.519 47.9684 18.5778 47.9684 16.7151C47.9684 16.1465 47.869 15.6955 47.6901 15.3622C47.4913 15.0288 47.1733 14.7347 46.7359 14.519C46.2986 14.2837 45.6625 14.068 44.8277 13.8523L43.5157 13.519C41.9851 13.1269 40.9117 12.5778 40.2955 11.8916C39.6992 11.1857 39.401 10.1857 39.401 8.89156C39.401 7.42098 39.8582 6.28372 40.7527 5.53862C41.6075 4.79352 42.9393 4.40137 44.6686 4.40137Z" fill="#67548E"/>
<path d="M55.025 14.3626V14.4215C55.025 16.2254 55.2437 17.4999 55.6611 18.245C56.1183 18.9901 56.8737 19.3626 57.9272 19.3626C59.6764 19.3626 60.6107 18.4803 60.6902 16.696L62.837 16.794C62.7178 17.9901 62.2804 18.9313 61.5251 19.6176C60.7697 20.3038 59.5373 20.6372 57.8676 20.6372C55.9195 20.6372 54.5281 20.1077 53.6932 19.0489C52.8583 17.9705 52.421 16.3626 52.421 14.2058C52.421 12.2646 52.8186 10.7156 53.6137 9.53912C54.4287 8.36265 55.84 7.77441 57.8477 7.77441C59.7957 7.77441 61.1474 8.36265 61.9028 9.53912C62.6581 10.696 63.0358 12.2058 63.0358 14.1077V14.3626H55.025ZM57.788 9.06853C56.8737 9.06853 56.2177 9.40186 55.8003 10.0685C55.3828 10.7352 55.1443 11.7352 55.0449 13.1077H60.4914C60.4318 11.7744 60.2131 10.7744 59.7957 10.1077C59.3981 9.40187 58.7223 9.06853 57.788 9.06853Z" fill="#67548E"/>
<path d="M72.6766 7.79395C75.3203 7.79395 76.6521 9.08806 76.6521 11.6959V20.3234H74.0481V11.892C74.0481 10.9704 73.8891 10.3037 73.5512 9.87238C73.2331 9.4214 72.7163 9.20571 72.0007 9.20571C70.9472 9.20571 69.9135 9.59787 68.8998 10.3822V20.3234H66.2958V8.08806H67.4288L68.4625 9.36257C69.0787 8.89198 69.7545 8.49983 70.5099 8.22532C71.2652 7.9312 72.0007 7.79395 72.6766 7.79395Z" fill="#67548E"/>
<path d="M90.3083 3.83301V20.3036H88.7379L87.9826 18.931C87.0284 20.0487 85.8357 20.6173 84.3648 20.6173C81.244 20.6173 79.6935 18.5193 79.6935 14.3036C79.6935 9.95065 81.3632 7.77418 84.6828 7.77418C85.7364 7.77418 86.7302 8.08791 87.7043 8.69575V4.16634L90.3083 3.83301ZM85.1003 19.3624C86.1339 19.3624 87.0085 18.8918 87.7043 17.931V10.0095C86.9688 9.46046 86.1538 9.18595 85.299 9.18595C84.325 9.18595 83.5697 9.61732 83.0528 10.4801C82.5559 11.3428 82.2975 12.6173 82.2975 14.3036C82.2975 15.9703 82.536 17.2252 82.9932 18.0683C83.4902 18.931 84.1859 19.3624 85.1003 19.3624Z" fill="#67548E"/>
<path d="M102.016 12.2256C103.07 12.5197 103.825 13.0099 104.322 13.7354C104.799 14.4413 105.038 15.2648 105.038 16.1472C105.038 17.3433 104.66 18.3629 103.905 19.1472C103.149 19.9315 101.857 20.3237 100.028 20.3237H94.5024V4.71582H99.2731C101.062 4.71582 102.354 5.08837 103.129 5.81386C103.925 6.53935 104.322 7.51974 104.322 8.71582C104.322 9.50013 104.143 10.206 103.785 10.8335C103.428 11.4413 102.831 11.8923 102.016 12.2256ZM97.1263 11.8335H99.0942C100.028 11.8335 100.684 11.559 101.082 10.9903C101.48 10.4217 101.678 9.657 101.678 8.71582C101.678 7.71582 101.46 6.95111 101.042 6.44131C100.605 5.9119 99.9689 5.657 99.1141 5.657H97.1462V11.8335H97.1263ZM99.7701 19.3629C101.519 19.3629 102.414 18.2844 102.414 16.1472C102.414 15.206 102.195 14.4217 101.738 13.7746C101.281 13.1276 100.645 12.8139 99.7701 12.8139H97.1462V19.3629H99.7701Z" fill="#67548E"/>
<path d="M117.561 8.08789L111.24 25.48L109.113 25.1663L111.518 20.7938L106.151 8.08789H108.755L112.711 17.7546L116.07 8.1075H117.561V8.08789Z" fill="#67548E"/>
<path d="M125.114 4.71582C126.943 4.71582 128.235 5.18641 128.991 6.10798C129.746 7.02955 130.124 8.22562 130.124 9.69621C130.124 11.1668 129.746 12.3629 128.991 13.2844C128.235 14.206 126.943 14.657 125.114 14.657H122.53V20.3041H119.886V4.71582H125.114ZM124.737 13.755C125.691 13.755 126.367 13.4021 126.804 12.6766C127.261 11.9707 127.48 10.9707 127.48 9.69621C127.48 8.44131 127.261 7.46092 126.804 6.73543C126.367 6.02955 125.691 5.657 124.737 5.657H122.51V13.7354H124.737V13.755Z" fill="#67548E"/>
<path d="M135.312 20.6372C134.258 20.6372 133.423 20.3626 132.807 19.794C132.211 19.2254 131.913 18.4411 131.913 17.4411C131.913 16.3823 132.29 15.5587 133.046 14.9705C133.821 14.3627 134.994 13.9117 136.564 13.6372L139.426 13.1862V11.9313C139.426 10.0097 138.691 9.04892 137.2 9.04892C136.325 9.04892 135.689 9.30383 135.292 9.79402C134.894 10.2842 134.676 11.0489 134.616 12.0685L132.449 11.8332C132.549 10.4999 132.966 9.4803 133.682 8.79402C134.397 8.10775 135.59 7.77441 137.24 7.77441C138.85 7.77441 140.043 8.12735 140.838 8.85285C141.633 9.55873 142.03 10.6176 142.03 12.0293V20.3038H140.381L139.585 18.5195C139.049 19.2058 138.413 19.7156 137.677 20.0685C136.922 20.4411 136.127 20.6372 135.312 20.6372ZM136.246 19.2842C136.822 19.2842 137.399 19.1077 137.975 18.7744C138.552 18.4411 139.049 18.0293 139.426 17.5783V14.2254L136.902 14.7156C136.047 14.9117 135.391 15.2058 134.934 15.5979C134.497 16.0097 134.298 16.5587 134.298 17.245C134.298 17.8528 134.477 18.343 134.815 18.7156C135.153 19.1077 135.63 19.2842 136.246 19.2842Z" fill="#67548E"/>
<path d="M150.995 13.2841C152.267 13.6175 153.182 14.0488 153.758 14.5783C154.335 15.1077 154.633 15.8724 154.633 16.8724C154.633 18.0292 154.216 18.9508 153.401 19.6175C152.586 20.2841 151.433 20.6175 149.942 20.6175C148.332 20.6175 147.119 20.3037 146.324 19.6567C145.529 18.99 145.052 18.0488 144.873 16.8136L147.02 16.5587C147.099 17.441 147.397 18.1273 147.874 18.6175C148.352 19.1077 149.047 19.3626 149.942 19.3626C150.657 19.3626 151.254 19.1665 151.731 18.7743C152.208 18.3822 152.427 17.9312 152.427 17.4214C152.427 16.9116 152.228 16.4998 151.81 16.2057C151.393 15.892 150.717 15.6371 149.763 15.3822L148.53 15.0292C147.437 14.7351 146.582 14.3234 146.006 13.7547C145.43 13.1861 145.131 12.4018 145.131 11.3822C145.131 10.2841 145.549 9.40179 146.364 8.75473C147.199 8.10767 148.332 7.79395 149.803 7.79395C151.333 7.79395 152.466 8.10767 153.202 8.75473C153.937 9.38218 154.394 10.3037 154.553 11.539L152.407 11.7155C152.327 10.892 152.049 10.2449 151.612 9.77434C151.174 9.30375 150.578 9.06845 149.803 9.06845C148.988 9.06845 148.391 9.22532 147.974 9.55865C147.556 9.87238 147.358 10.3037 147.358 10.8332C147.358 11.4018 147.556 11.8528 147.954 12.1665C148.371 12.4802 149.008 12.7351 149.882 12.99L150.995 13.2841Z" fill="#67548E"/>
<path d="M162.783 13.2841C164.055 13.6175 164.969 14.0488 165.546 14.5783C166.122 15.1077 166.421 15.8724 166.421 16.8724C166.421 18.0292 166.003 18.9508 165.188 19.6175C164.373 20.2841 163.22 20.6175 161.729 20.6175C160.119 20.6175 158.907 20.3037 158.112 19.6567C157.317 18.99 156.839 18.0488 156.661 16.8136L158.807 16.5587C158.887 17.441 159.185 18.1273 159.662 18.6175C160.139 19.1077 160.835 19.3626 161.729 19.3626C162.445 19.3626 163.041 19.1665 163.518 18.7743C163.976 18.3822 164.214 17.9312 164.214 17.4214C164.214 16.9116 164.015 16.4998 163.598 16.2057C163.18 15.892 162.505 15.6371 161.55 15.3822L160.318 15.0292C159.225 14.7351 158.37 14.3234 157.794 13.7547C157.217 13.1861 156.919 12.4018 156.919 11.3822C156.919 10.2841 157.336 9.40179 158.151 8.75473C158.986 8.10767 160.119 7.79395 161.59 7.79395C163.121 7.79395 164.254 8.10767 164.989 8.75473C165.725 9.38218 166.182 10.3037 166.341 11.539L164.194 11.7155C164.115 10.892 163.836 10.2449 163.399 9.77434C162.962 9.30375 162.365 9.06845 161.59 9.06845C160.775 9.06845 160.179 9.22532 159.761 9.55865C159.344 9.87238 159.145 10.3037 159.145 10.8332C159.145 11.4018 159.344 11.8528 159.742 12.1665C160.159 12.4802 160.795 12.7351 161.67 12.99L162.783 13.2841Z" fill="#67548E"/>
<path fill-rule="evenodd" clip-rule="evenodd" d="M21.9283 3.97051C19.7815 3.97051 17.7937 4.71561 16.2234 5.9509C16.2234 5.9509 16.2035 5.9509 16.1836 5.97051C15.965 6.10777 14.9512 6.79404 13.8977 8.61757C12.6851 10.6764 12.7646 12.8529 12.7646 12.8529V12.8333C12.7646 12.8529 12.7646 12.8725 12.7646 12.8725C12.7646 14.5784 11.3533 15.9705 9.62394 15.9705C7.89456 15.9705 6.48324 14.5784 6.48324 12.8725C6.48324 11.1666 7.89456 9.77443 9.62394 9.77443C10.5781 9.77443 11.4129 10.1862 11.9894 10.8529C12.0888 10.3823 12.3671 9.34306 13.0231 8.16659C13.8977 6.61757 15.4879 5.32345 15.6072 5.22541C13.361 2.42149 10.5582 0.519531 9.62394 0.519531C7.99395 0.519531 0.5 6.49992 0.5 12.8333C0.5 17.794 4.59484 21.8333 9.62394 21.8333C11.7707 21.8333 13.7387 21.1078 15.309 19.8725C15.309 19.8725 15.3289 19.8725 15.3488 19.8529L15.3686 19.8333C15.6271 19.6764 16.6011 18.9705 17.6347 17.2058C18.6286 15.5195 18.7678 13.6372 18.7678 13.0293C18.7678 12.9901 18.7678 12.9705 18.7678 12.9313C18.7678 11.2254 20.1791 9.83326 21.9085 9.83326C23.6378 9.83326 25.0492 11.2254 25.0492 12.9313C25.0492 14.6372 23.6378 16.0293 21.9085 16.0293C20.9543 16.0293 20.0996 15.6176 19.5231 14.9509C19.4237 15.4019 19.1653 16.4607 18.4696 17.6764C17.6347 19.1666 16.124 20.4215 15.9053 20.598C18.1714 23.4019 20.9742 25.3235 21.8886 25.3235C23.5186 25.3235 31.0125 19.3431 31.0125 13.0097C31.0523 8.00973 26.9574 3.97051 21.9283 3.97051Z" fill="#67548E"/>
</g>
<defs>
<clipPath id="clip0_9287_24678">
<rect width="166" height="25" fill="white" transform="translate(0.5 0.5)"/>
</clipPath>
</defs>
</svg>
