<svg width="48" height="48" viewBox="0 0 48 48" fill="none" xmlns="http://www.w3.org/2000/svg">
<g id="Server setting">
<path id="Vector" d="M43 22.704V15.5643C43 9.68562 38.8376 6 32.9472 6H17.0528C11.1624 6 7 9.6681 7 15.5643V32.4318C7 38.33 11.1624 42 17.0528 42H23.2176" stroke="#67548E" stroke-width="3" stroke-linecap="round" stroke-linejoin="round"/>
<path id="Vector_2" d="M25.44 24H7.04688" stroke="#67548E" stroke-width="3" stroke-linecap="round" stroke-linejoin="round"/>
<path id="Vector_3" opacity="0.4" d="M15.7266 32.2715H16.7715" stroke="#67548E" stroke-width="3" stroke-linecap="round" stroke-linejoin="round"/>
<path id="Vector_4" opacity="0.4" d="M15.7266 15.7305H16.7715M25.2034 15.7305H34.2716" stroke="#67548E" stroke-width="3" stroke-linecap="round" stroke-linejoin="round"/>
<path id="Vector_5" fill-rule="evenodd" clip-rule="evenodd" d="M41.6083 35.0165C41.6083 37.5871 39.5233 39.6735 36.9509 39.6735C34.3803 39.6735 32.2969 37.5871 32.2969 35.0165C32.2969 32.4459 34.3803 30.3613 36.9509 30.3613C39.5233 30.3613 41.6083 32.4459 41.6083 35.0165Z" stroke="#67548E" stroke-width="3" stroke-linecap="round" stroke-linejoin="round"/>
<path id="Vector_6" d="M36.9533 28.0332V30.3606M36.9533 39.6728V42.0002M30.9062 31.5238L32.9222 32.6874M40.9856 37.3446L43.0016 38.5082M30.9062 38.5082L32.9222 37.3446M40.9856 32.6884L43.0016 31.5248" stroke="#67548E" stroke-width="3" stroke-linecap="round" stroke-linejoin="round"/>
</g>
</svg>
