<svg width="20" height="20" viewBox="0 0 20 20" fill="none" xmlns="http://www.w3.org/2000/svg">
<rect width="20" height="20" fill="#1E1E1E"/>
<g id="Trip">
<path d="M-14838 -443C-14838 -444.105 -14837.1 -445 -14836 -445H2067C2068.1 -445 2069 -444.105 2069 -443V4547C2069 4548.1 2068.11 4549 2067 4549H-14836C-14837.1 4549 -14838 4548.1 -14838 4547V-443Z" fill="#444444"/>
<path d="M-14836 -444H2067V-446H-14836V-444ZM2068 -443V4547H2070V-443H2068ZM2067 4548H-14836V4550H2067V4548ZM-14837 4547V-443H-14839V4547H-14837ZM-14836 4548C-14836.6 4548 -14837 4547.55 -14837 4547H-14839C-14839 4548.66 -14837.7 4550 -14836 4550V4548ZM2068 4547C2068 4547.55 2067.55 4548 2067 4548V4550C2068.66 4550 2070 4548.66 2070 4547H2068ZM2067 -444C2067.55 -444 2068 -443.552 2068 -443H2070C2070 -444.657 2068.66 -446 2067 -446V-444ZM-14836 -446C-14837.7 -446 -14839 -444.657 -14839 -443H-14837C-14837 -443.552 -14836.6 -444 -14836 -444V-446Z" fill="white" fill-opacity="0.1"/>
<g id="Add new Trips LG" clip-path="url(#clip0_1_51)">
<rect width="1512" height="1304" transform="translate(-228 -311)" fill="#FEF7FD"/>
<g id="Main Container" clip-path="url(#clip1_1_51)">
<g id="Container">
<path d="M-98 -195C-98 -201.627 -92.6274 -207 -86 -207H1142C1148.63 -207 1154 -201.627 1154 -195V813C1154 819.627 1148.63 825 1142 825H-86C-92.6274 825 -98 819.627 -98 813V-195Z" fill="white"/>
<g id="Inputs">
<g id="Container_2">
<g id="2">
<g id="Ticket image Vertical">
<g id="Profile image">
<path d="M-82 -22.2C-82 -26.6804 -82 -28.9206 -81.1281 -30.6319C-80.3611 -32.1372 -79.1372 -33.3611 -77.6319 -34.1281C-75.9206 -35 -73.6804 -35 -69.2 -35H89.2C93.6804 -35 95.9206 -35 97.6319 -34.1281C99.1372 -33.3611 100.361 -32.1372 101.128 -30.6319C102 -28.9206 102 -26.6804 102 -22.2V55H-82V-22.2Z" fill="#65558F" fill-opacity="0.08"/>
<g id="Image">
<g id="Iconly/Light-Outline/Image-2">
<g id="Image-2">
<path id="Combined-Shape" fill-rule="evenodd" clip-rule="evenodd" d="M14.302 0C15.91 0 17.297 0.537 18.312 1.554C19.373 2.616 19.955 4.161 19.953 5.905L19.9545 12.9014C19.9562 12.9283 19.9565 12.9553 19.9554 12.9822L19.953 14.05C19.953 17.581 17.68 19.954 14.297 19.954H5.651C2.271 19.954 0 17.581 0 14.05V5.904C0 2.373 2.271 0 5.651 0H14.302ZM14.5786 10.8323C13.9906 10.8323 13.3006 11.8053 12.6896 12.6643C11.8516 13.8443 10.9846 15.0653 9.6786 15.0653C8.7956 15.0653 7.9866 14.7253 7.2736 14.4243C6.1396 13.9463 5.6256 13.7933 5.1226 14.2073C4.1157 15.037 3.12078 16.5479 2.66363 17.2914C3.38518 18.0354 4.41016 18.454 5.651 18.454H14.297C16.822 18.454 18.453 16.726 18.453 14.05L18.453 13.251L18.4299 13.2267C17.5545 12.3248 16.0429 10.8323 14.5786 10.8323ZM14.302 1.5H5.651C3.13 1.5 1.5 3.229 1.5 5.904V14.05C1.5 14.7186 1.60175 15.328 1.79372 15.8661C2.37241 14.9923 3.24639 13.8094 4.1696 13.0493C5.4216 12.0193 6.7696 12.5853 7.8556 13.0423C8.4946 13.3113 9.0986 13.5653 9.6786 13.5653C10.2106 13.5653 10.8776 12.6253 11.4676 11.7963C12.2866 10.6403 13.2166 9.3323 14.5786 9.3323C16.0733 9.3323 17.4271 10.2509 18.4541 11.1624L18.453 5.904C18.455 4.541 18.039 3.403 17.251 2.614C16.523 1.885 15.504 1.5 14.302 1.5ZM6.857 4.1895C8.288 4.1905 9.452 5.3545 9.453 6.7845C9.453 8.2155 8.289 9.3805 6.857 9.3805C5.425 9.3805 4.261 8.2165 4.261 6.7855C4.261 5.3535 5.425 4.1895 6.857 4.1895ZM6.856 5.6895C6.252 5.6895 5.761 6.1805 5.761 6.7855C5.761 7.3895 6.252 7.8805 6.857 7.8805C7.461 7.8805 7.953 7.3895 7.953 6.7865C7.952 6.1815 7.46 5.6905 6.856 5.6895Z" fill="#7A7580"/>
</g>
</g>
</g>
</g>
</g>
</g>
</g>
</g>
</g>
</g>
</g>
</g>
<defs>
<clipPath id="clip0_1_51">
<rect width="1512" height="1304" fill="white" transform="translate(-228 -311)"/>
</clipPath>
<clipPath id="clip1_1_51">
<rect width="1252" height="1200" fill="white" transform="translate(-98 -207)"/>
</clipPath>
</defs>
</svg>
