<svg width="31" height="38" viewBox="0 0 31 38" fill="none" xmlns="http://www.w3.org/2000/svg">
<g clip-path="url(#clip0_7351_52134)">
<path d="M28.5 32.5C27.1193 32.5 26 33.6193 26 35C26 36.3807 27.1193 37.5 28.5 37.5C29.8807 37.5 31 36.3807 31 35C31 33.6193 29.8807 32.5 28.5 32.5Z" fill="#CBC4D0"/>
<path d="M15.5 32.5C14.1193 32.5 13 33.6193 13 35C13 36.3807 14.1193 37.5 15.5 37.5C16.8807 37.5 18 36.3807 18 35C18 33.6193 16.8807 32.5 15.5 32.5Z" fill="#CBC4D0"/>
<path d="M2.5 32.5C1.11929 32.5 0 33.6193 0 35C0 36.3807 1.11929 37.5 2.5 37.5C3.88071 37.5 5 36.3807 5 35C5 33.6193 3.88071 32.5 2.5 32.5Z" fill="#CBC4D0"/>
<path d="M28.5 20.5C27.1193 20.5 26 21.6193 26 23C26 24.3807 27.1193 25.5 28.5 25.5C29.8807 25.5 31 24.3807 31 23C31 21.6193 29.8807 20.5 28.5 20.5Z" fill="#67548E"/>
<path d="M15.5 20.5C14.1193 20.5 13 21.6193 13 23C13 24.3807 14.1193 25.5 15.5 25.5C16.8807 25.5 18 24.3807 18 23C18 21.6193 16.8807 20.5 15.5 20.5Z" fill="#67548E"/>
<path d="M2.5 20.5C1.11929 20.5 0 21.6193 0 23C0 24.3807 1.11929 25.5 2.5 25.5C3.88071 25.5 5 24.3807 5 23C5 21.6193 3.88071 20.5 2.5 20.5Z" fill="#CBC4D0"/>
<path d="M15.5 8.5C14.1193 8.5 13 9.61929 13 11C13 12.3807 14.1193 13.5 15.5 13.5C16.8807 13.5 18 12.3807 18 11C18 9.61929 16.8807 8.5 15.5 8.5Z" fill="#67548E"/>
<path d="M2.5 8.5C1.11929 8.5 0 9.61929 0 11C0 12.3807 1.11929 13.5 2.5 13.5C3.88071 13.5 5 12.3807 5 11C5 9.61929 3.88071 8.5 2.5 8.5Z" fill="#CBC4D0"/>
</g>
<defs>
<clipPath id="clip0_7351_52134">
<rect width="31" height="29" fill="white" transform="matrix(-1 0 0 1 31 8.5)"/>
</clipPath>
</defs>
</svg>
