<svg xmlns="http://www.w3.org/2000/svg" width="83" height="29" viewBox="0 0 83 29" fill="none">
  <g clip-path="url(#clip0_517_2988)">
    <path d="M2.5 24C3.88071 24 5 25.1193 5 26.5C5 27.8807 3.88071 29 2.5 29C1.11929 29 0 27.8807 0 26.5C0 25.1193 1.11929 24 2.5 24Z" fill="#CBC4D0"/>
    <path d="M15.5 24C16.8807 24 18 25.1193 18 26.5C18 27.8807 16.8807 29 15.5 29C14.1193 29 13 27.8807 13 26.5C13 25.1193 14.1193 24 15.5 24Z" fill="#CBC4D0"/>
    <path d="M28.5 24C29.8807 24 31 25.1193 31 26.5C31 27.8807 29.8807 29 28.5 29C27.1193 29 26 27.8807 26 26.5C26 25.1193 27.1193 24 28.5 24Z" fill="#CBC4D0"/>
    <path d="M41.5 24C42.8807 24 44 25.1193 44 26.5C44 27.8807 42.8807 29 41.5 29C40.1193 29 39 27.8807 39 26.5C39 25.1193 40.1193 24 41.5 24Z" fill="#67548E"/>
    <path d="M54.5 24C55.8807 24 57 25.1193 57 26.5C57 27.8807 55.8807 29 54.5 29C53.1193 29 52 27.8807 52 26.5C52 25.1193 53.1193 24 54.5 24Z" fill="#CBC4D0"/>
    <path d="M67.5 24C68.8807 24 70 25.1193 70 26.5C70 27.8807 68.8807 29 67.5 29C66.1193 29 65 27.8807 65 26.5C65 25.1193 66.1193 24 67.5 24Z" fill="#CBC4D0"/>
    <path d="M80.5 24C81.8807 24 83 25.1193 83 26.5C83 27.8807 81.8807 29 80.5 29C79.1193 29 78 27.8807 78 26.5C78 25.1193 79.1193 24 80.5 24Z" fill="#CBC4D0"/>
    <path d="M2.5 12C3.88071 12 5 13.1193 5 14.5C5 15.8807 3.88071 17 2.5 17C1.11929 17 0 15.8807 0 14.5C0 13.1193 1.11929 12 2.5 12Z" fill="#67548E"/>
    <path d="M15.5 12C16.8807 12 18 13.1193 18 14.5C18 15.8807 16.8807 17 15.5 17C14.1193 17 13 15.8807 13 14.5C13 13.1193 14.1193 12 15.5 12Z" fill="#67548E"/>
    <path d="M28.5 12C29.8807 12 31 13.1193 31 14.5C31 15.8807 29.8807 17 28.5 17C27.1193 17 26 15.8807 26 14.5C26 13.1193 27.1193 12 28.5 12Z" fill="#67548E"/>
    <path d="M41.5 12C42.8807 12 44 13.1193 44 14.5C44 15.8807 42.8807 17 41.5 17C40.1193 17 39 15.8807 39 14.5C39 13.1193 40.1193 12 41.5 12Z" fill="#67548E"/>
    <path d="M54.5 12C55.8807 12 57 13.1193 57 14.5C57 15.8807 55.8807 17 54.5 17C53.1193 17 52 15.8807 52 14.5C52 13.1193 53.1193 12 54.5 12Z" fill="#67548E"/>
    <path d="M2.5 0C3.88071 0 5 1.11929 5 2.5C5 3.88071 3.88071 5 2.5 5C1.11929 5 0 3.88071 0 2.5C0 1.11929 1.11929 0 2.5 0Z" fill="#CBC4D0"/>
    <path d="M15.5 0C16.8807 0 18 1.11929 18 2.5C18 3.88071 16.8807 5 15.5 5C14.1193 5 13 3.88071 13 2.5C13 1.11929 14.1193 0 15.5 0Z" fill="#67548E"/>
    <path d="M28.5 0C29.8807 0 31 1.11929 31 2.5C31 3.88071 29.8807 5 28.5 5C27.1193 5 26 3.88071 26 2.5C26 1.11929 27.1193 0 28.5 0Z" fill="#CBC4D0"/>
  </g>
  <defs>
    <clipPath id="clip0_517_2988">
      <rect width="83" height="29" fill="white"/>
    </clipPath>
  </defs>
</svg>